<?xml version="1.0" encoding="UTF-8"?>
<svg id="Layer_2" data-name="Layer 2" xmlns="http://www.w3.org/2000/svg" viewBox="0 0 178.45 159.59">
  <defs>
    <style>
      .cls-1 {
        fill: #cd0000;
      }

      .cls-2 {
        fill: #f0efeb;
      }

      .cls-3 {
        fill: #16580a;
      }
    </style>
  </defs>
  <g id="Layer_1-2" data-name="Layer 1">
    <g>
      <path class="cls-2" d="M148.42,79.63c-.76-.05-1.33-.7-1.28-1.46.03-.45.06-.87.07-1.05.44-6.46,1.47-12.71,3.07-18.6.73-2.68-.12-5.47-2.21-7.28h0c-5.18-4.48-9.99-9.32-14.3-14.41-3.82-4.51-9.18-7.45-15.07-8.28l-.34-.05c-1.18-.17-3.72.19-5.34.46-.81.13-1.58-.41-1.71-1.22-.24-1.49-.64-3.69-1.06-4.56l-.45-.93c-2.7-5.52-7.29-9.76-12.95-11.96-6.43-2.5-12.45-5.57-17.88-9.11-2.33-1.52-5.24-1.58-7.6-.15-5.86,3.54-11.96,6.62-18.12,9.15-5.47,2.24-9.92,6.43-12.53,11.78l-.6,1.22c-.44.9-.82,2.94-1.03,4.35-.12.8-.87,1.34-1.67,1.23-1.32-.19-3.2-.41-4.12-.28l-1.02.14c-6.08.86-11.54,3.91-15.38,8.61-4.37,5.34-9.15,10.11-14.2,14.18-2.17,1.74-3.12,4.5-2.49,7.18,1.55,6.67,2.59,13.42,3.09,20.07.44,5.89,3.04,11.42,7.32,15.56l.98.95c.71.69,2.49,1.65,3.74,2.29.73.37,1.02,1.27.64,2-.76,1.43-1.86,3.64-2.07,4.86l-.04.23c-1.03,5.9.2,11.95,3.48,17.05,3.73,5.81,6.8,11.82,9.11,17.88.99,2.6,3.31,4.36,6.07,4.59,6.82.58,13.56,1.67,20.04,3.25.51.12,1.03.23,1.54.32l24.25,8.71c6.09,2.19,12.39,3.24,18.63,3.24,17.52,0,34.59-8.28,45.23-22.99l35.51-49.11c1.8-2.49.15-5.99-2.92-6.18l-26.37-1.68Z"/>
      <path class="cls-1" d="M107.16,114.25c1.15-.22,2.44-.49,2.8-.61,3.49-1.19,6.64-3.32,9.1-6.2,2.51-2.94,5.19-5.66,7.97-8.1,1.97-1.72,2.9-4.35,2.38-6.92-.76-3.74-1.33-7.53-1.68-11.27-.37-4-1.89-7.78-4.32-10.88-.22-.28-.93-1.02-1.61-1.69-.61-.6-1.64-.3-1.83.54-.69,3.04-1.14,6.23-1.33,9.51-.22,3.81-1.83,7.34-4.53,9.96l-.1.1c-.42.41-.87.77-1.36,1.08-.77.5-1.09,1.49-.77,2.35.2.53.35,1.07.45,1.63l.03.19c.65,3.69-.07,7.46-2.02,10.62-1.59,2.58-3.06,5.32-4.36,8.16-.37.8.32,1.69,1.19,1.53Z"/>
      <path class="cls-1" d="M79.85,115.13l.12.06c2.42,1.28,5.23,1.6,7.91.89,4.15-1.09,8.3-1.75,12.34-1.95.41-.02.76-.26.92-.63,1.63-3.87,3.55-7.6,5.7-11.09,1.42-2.31,1.95-5.06,1.47-7.76l-.03-.19c-.09-.52-.26-1.01-.51-1.47-.21-.39-.74-.49-1.06-.18-.34.32-.71.66-.84.78-1.22,1.12-2.4,2.35-3.52,3.66-2.37,2.78-5.65,4.59-9.22,5.09l-.12.02s0,0,0,0c-.48.07-.89.38-1.06.83-.07.2-.16.4-.26.6l-.26.53c-1.27,2.6-3.43,4.63-6.09,5.72-2.19.9-4.36,1.96-6.49,3.18-.39.22-.45.76-.13,1.08.33.33.71.61,1.12.83Z"/>
      <path class="cls-1" d="M62.85,102.41c.86,1.75,2.31,3.1,4.09,3.79,2.34.91,4.57,1.99,6.65,3.21.22.13.54.32.84.5.6.36,1.33.37,1.95.05.32-.17.71-.38,1.13-.6,1.87-.99,4.57-2.39,6.28-3.08,1.73-.71,3.13-2.03,3.96-3.73l.26-.53c.31-.63.3-1.38-.01-2.01l-3.95-5.45c-.53-.73-1.4-1.11-2.3-1.05-.7.04-1.41-.02-2.11-.18-2.7-.63-5.5-.76-8.18-.04-.81.22-1.65.29-2.47.21-.92-.08-1.83.29-2.37,1.04l-3.75,5.16c-.49.68-.57,1.57-.2,2.32l.2.4Z"/>
      <path class="cls-1" d="M59.81,78.7c-.25-.48-.45-.97-.59-1.48-.24-.87-.89-1.56-1.74-1.83l-5.22-1.69c-.08-.03-.16-.06-.24-.09l-.05-.02c-.22-.05-.44-.08-.66-.08-.78,0-1.52.3-2.09.85l-.07.07c-1.35,1.31-2.16,3.08-2.27,4.99-.14,2.54-.48,5.02-1.01,7.39-.05.22-.12.53-.19.84-.16.69.07,1.42.59,1.91.21.19.41.38.55.51,1.86,1.71,3.61,3.52,5.2,5.4,1.21,1.42,2.9,2.35,4.77,2.62l.15.02c1.1.15,2.2-.31,2.86-1.21l3.33-4.57c.58-.8.62-1.85.18-2.74-.31-.63-.52-1.3-.64-2.02-.52-3.09-1.37-6.1-2.85-8.86Z"/>
      <path class="cls-1" d="M93.09,47.43l-.27-.55c-1.24-2.54-3.35-4.49-5.94-5.5-4-1.56-7.75-3.47-11.13-5.68-.34-.22-.78-.23-1.11-.03-3.6,2.17-7.34,4.06-11.13,5.62-2.51,1.03-4.55,2.95-5.75,5.41l-.35.72c-.19.39-.31.8-.36,1.22-.05.42.29.8.72.76,2.41-.19,4.88-.61,7.34-1.26.99-.26,2-.39,3-.39,1.88,0,3.73.45,5.41,1.34l.09.05c.33.18.65.38.94.6.47.35,1.1.35,1.57,0,.3-.22.61-.42.94-.6l.13-.07c2.55-1.35,5.5-1.73,8.29-1.05,2.33.57,4.76.99,7.22,1.25.45.05.81-.35.74-.8-.06-.37-.17-.73-.34-1.07Z"/>
      <path class="cls-1" d="M107.4,56.14c-1.75-2.07-4.21-3.41-6.92-3.8l-.2-.03c-.57-.08-1.14-.06-1.7.06-.4.09-.62.53-.46.91.92,2.2,2.06,4.37,3.42,6.47,1.59,2.48,2.19,5.42,1.69,8.29l-.02.1c-.06.35-.15.7-.26,1.03-.16.48-.04,1.02.34,1.36.29.26.57.52.63.59,2.32,2.41,3.76,5.55,4.07,8.92.16,1.7.4,3.43.72,5.14.03.16.11.56.17.96.08.45.56.68.97.49.48-.22.92-.53,1.3-.9l.1-.1c1.96-1.9,3.13-4.48,3.29-7.25.24-4.29.9-8.44,1.96-12.34.11-.4-.01-.81-.32-1.07-3.18-2.75-6.13-5.72-8.78-8.85Z"/>
      <path class="cls-1" d="M56.32,54.67c-.09.19-.17.37-.23.51-1.07,2.36-2.28,4.64-3.61,6.79-.98,1.59-1.34,3.49-1.01,5.35l.02.14c.18,1,.84,1.84,1.77,2.24h.05c.07.03.13.05.2.07l4.58,1.49c.97.32,2.05.06,2.74-.68.65-.7,1.45-1.28,2.34-1.68,2.59-1.15,5-2.72,6.83-4.89.55-.65,1.18-1.18,1.87-1.59.85-.5,1.41-1.38,1.41-2.37v-4.61c0-1.11-.62-2.14-1.6-2.66l-.09-.05c-1.64-.87-3.62-1.09-5.45-.61-2.63.69-5.27,1.15-7.85,1.37-.1,0-.22.02-.35.03-.71.06-1.34.5-1.64,1.15Z"/>
      <path class="cls-1" d="M87.71,92.58l3.41,4.69c.11.15.22.31.33.51l.12.16c.2.27.53.41.87.37l.12-.02c2.58-.37,4.95-1.68,6.68-3.7,1.45-1.69,3-3.27,4.6-4.68.86-.76,1.26-1.91,1.03-3.03-.44-2.14-.76-4.31-.96-6.45-.24-2.57-1.38-4.95-3.21-6.72l-.21-.2c-.24-.24-.6-.32-.92-.21l-.99.32c-.06.02-.12.04-.18.06l-6.46,2.1c-.05.83-.25,1.65-.6,2.42-1.33,3.02-2.56,6.11-3.09,9.37-.13.79-.39,1.54-.76,2.23-.47.88-.36,1.96.22,2.76Z"/>
      <path class="cls-1" d="M14.18,92.49c.49.47,1.02.87,1.6,1.2.56.32,1.29.03,1.45-.6,1.11-4.42,1.81-9.1,2.09-13.92.28-4.82,2.32-9.3,5.75-12.61l.71-.69c.64-.62,1.43-1.04,2.24-1.41.77-.35,1.06-1.27.65-2-.44-.78-.82-1.58-.98-2.46l-.18-1.05c-.82-4.67.1-9.44,2.57-13.45,2.34-3.79,4.46-7.82,6.32-12,.27-.61-.14-1.32-.81-1.37-.58-.05-1.17-.03-1.77.05l-1.02.14c-5.15.73-9.77,3.31-13.01,7.27-4.53,5.54-9.5,10.5-14.75,14.72-1.04.84-1.5,2.15-1.2,3.43h0c1.6,6.85,2.67,13.8,3.18,20.63.37,4.98,2.57,9.65,6.19,13.16l.98.95Z"/>
      <path class="cls-1" d="M51.96,52.06c-.1,0-.17,0-.17,0-3.68.52-7.05,2.39-9.51,5.26-1.96,2.29-4.05,4.42-6.23,6.31-1.35,1.18-1.93,3-1.58,4.75.59,2.88,1.02,5.79,1.29,8.67.34,3.65,1.96,7.05,4.57,9.57l.29.28s0,0,0,0c.36.34.97.13,1.09-.35.57-2.35.92-4.82,1.07-7.36.17-2.94,1.41-5.68,3.51-7.7l.07-.07c.27-.26.56-.5.86-.71.48-.34.68-.93.49-1.49-.12-.34-.21-.69-.27-1.05l-.02-.14c-.5-2.85.06-5.76,1.56-8.21,1.33-2.15,2.53-4.44,3.57-6.81.19-.44-.13-.94-.61-.95Z"/>
      <path class="cls-1" d="M44.07,23.61l-.6,1.22c-.3.61-.51,1.24-.65,1.89-.13.64.37,1.23,1.02,1.19,4.55-.32,9.21-1.1,13.88-2.32,4.67-1.23,9.56-.67,13.77,1.56l.88.47c.79.42,1.43,1.03,2.04,1.69.57.62,1.54.62,2.11,0,.6-.66,1.25-1.27,2.04-1.69l.94-.5c4.19-2.22,9.01-2.83,13.58-1.72,4.33,1.06,8.82,1.82,13.37,2.3.67.07,1.21-.54,1.05-1.2-.13-.57-.33-1.13-.6-1.66l-.45-.93c-2.28-4.67-6.17-8.27-10.94-10.12-6.67-2.6-12.92-5.78-18.57-9.47-1.12-.73-2.51-.76-3.63-.08h0c-6.02,3.64-12.29,6.81-18.64,9.41-4.62,1.9-8.38,5.43-10.6,9.96Z"/>
      <path class="cls-1" d="M67.86,141.87l.29-.15c.99-.52,1.86-1.21,2.59-2,.42-.46.34-1.19-.19-1.51-3.71-2.27-7.75-4.27-12.03-5.94-4.5-1.75-8.16-5.13-10.3-9.52l-.31-.64c-.41-.84-.77-1.72-.88-2.65-.09-.8-.81-1.37-1.59-1.26-.99.14-1.98.25-2.97.11l-.69-.1c-4.69-.66-8.96-3.01-12-6.59-2.94-3.47-6.19-6.79-9.66-9.9-.47-.42-1.22-.28-1.52.27-.5.91-.85,1.91-1.04,2.97l-.04.23c-.87,4.97.17,10.08,2.95,14.39,3.87,6.02,7.06,12.27,9.46,18.57.47,1.25,1.58,2.09,2.89,2.2h0c7.01.59,13.95,1.72,20.61,3.34,4.85,1.18,9.98.53,14.43-1.83Z"/>
      <path class="cls-3" d="M139.18,134.42l32.21-44.55c.55-.76-.22-1.77-1.1-1.43l-4.62,1.75c-10.82,4.1-20.77,10.63-28.84,18.93-.02,1.91-.26,3.81-.73,5.65h0c-.13.52-.28,1.04-.45,1.55v.02c-.17.51-.35,1.01-.55,1.51v.03c-.21.49-.42.97-.65,1.45l-.03.07c-.24.49-.49.97-.76,1.44-.13.23-.26.46-.4.68-3.5,5.68-6.63,11.75-9.29,18.07-1.05,2.48-3.47,4.17-6.18,4.31-6.48.32-13.15,1.38-19.83,3.14-2.04.54-4.11.8-6.16.8h0c-3.85,0-7.65-.93-11.08-2.75l-.21-.11c-1.63-.86-3.03-2.03-4.14-3.41h0c-.61-.77-1.78-.75-2.37.03-.02.02-.03.04-.04.06-1.1,1.34-2.48,2.47-4.07,3.32l-.29.15c-.66.35-1.34.67-2.02.96,0,0-.01,0-.02,0,0,0,0,0,0,0-1.15.48-2.34.87-3.54,1.17l15.61,5.61c21.62,7.76,46.11.19,59.57-18.43Z"/>
      <path class="cls-3" d="M145.98,84.31c-1.18,3.71-3.25,7.08-6.08,9.82l-.17.17c-1.32,1.28-2.87,2.25-4.52,2.89-.89.34-1.24,1.4-.72,2.2.95,1.48,1.62,3.15,1.93,4.95v.03c8.02-7.64,17.62-13.69,27.96-17.61l1.8-.68c.82-.31.64-1.53-.24-1.58l-18.49-1.18c-.66-.04-1.27.37-1.47,1Z"/>
      <path class="cls-1" d="M117.84,32.2c-.92-.13-1.84-.13-2.73,0-.64.09-1.03.75-.79,1.34,1.67,4.05,3.78,8.06,6.28,11.95,2.61,4.06,3.6,8.88,2.77,13.58l-.03.18c-.18,1.05-.51,2.04-.97,2.98-.32.64-.08,1.42.52,1.8.41.26.79.56,1.14.9l.37.36c4.22,4.08,6.84,9.58,7.39,15.48.33,3.59.88,7.23,1.61,10.83h0c.06.3.11.6.15.91.08.68.82,1.07,1.43.74.79-.42,1.52-.95,2.18-1.59l.17-.17c3.63-3.51,5.78-8.26,6.07-13.37.41-7.15,1.51-14.08,3.27-20.58.35-1.29-.05-2.62-1.05-3.48-5.32-4.6-10.27-9.59-14.71-14.82-3.23-3.81-7.76-6.29-12.75-7l-.34-.05Z"/>
      <path class="cls-1" d="M86.44,72.83c-3.18-1.95-6.22-4.16-9.06-6.58-1.11-.95-2.73-.95-3.84,0-2.83,2.42-5.88,4.63-9.06,6.58-1.25.77-1.75,2.3-1.19,3.66,1.43,3.44,2.59,7.02,3.46,10.65.34,1.42,1.65,2.37,3.11,2.26,1.85-.15,3.73-.22,5.6-.22s3.75.07,5.6.22c1.46.12,2.77-.83,3.11-2.26.87-3.62,2.03-7.2,3.46-10.65.56-1.35.06-2.89-1.19-3.66Z"/>
      <path class="cls-1" d="M94.23,54.62c-.28-.65-.89-1.11-1.59-1.19-.75-.09-1.7-.2-2.29-.29-1.98-.28-3.93-.65-5.84-1.11-1.79-.44-3.75-.19-5.4.69l-.12.07c-.99.52-1.6,1.54-1.6,2.66v4.48c0,1.01.59,1.9,1.47,2.38,1.05.58,1.96,1.43,2.69,2.53,1.24,1.87,3.19,3.11,5.34,3.74,1.23.36,2.32,1.05,3.17,1.95.69.74,1.76.98,2.72.67l4.58-1.49c.95-.39,1.63-1.23,1.81-2.26l.02-.1c.32-1.85-.07-3.76-1.1-5.37-1.31-2.04-2.45-4.14-3.39-6.27-.12-.28-.3-.7-.47-1.09Z"/>
      <path class="cls-1" d="M108.11,31.97c-5.44-.46-10.83-1.33-16-2.6-1.16-.28-2.36-.43-3.55-.43-2.47,0-4.94.62-7.14,1.78,0,0-.74.49-1.44,1.06-.6.48-.52,1.4.14,1.79,2.58,1.52,5.36,2.85,8.26,3.99,3.55,1.38,6.44,4.05,8.14,7.52l.27.55c.19.38.34.77.46,1.18.27.88,1.07,1.48,1.99,1.45.72-.03,1.42-.03,1.64,0l.2.03c3.71.52,7.07,2.37,9.47,5.2,2,2.36,4.19,4.63,6.54,6.79.57.52,1.5.29,1.75-.44.34-.98.61-2.05.63-2.2.43-3.45-.37-6.95-2.29-9.94-3.01-4.69-5.49-9.55-7.36-14.45-.28-.73-.93-1.23-1.69-1.29Z"/>
      <path class="cls-1" d="M82.22,141.72l.21.11c4.46,2.36,9.64,2.95,14.59,1.65,6.93-1.82,13.85-2.92,20.58-3.25,1.33-.07,2.47-.86,2.98-2.07,2.73-6.48,5.94-12.73,9.55-18.57,2.62-4.25,3.59-9.32,2.72-14.29l-.06-.32c-.18-1-.51-1.95-.96-2.83-.31-.59-1.1-.69-1.57-.22-.16.15-.31.3-.48.45-2.65,2.32-5.21,4.92-7.61,7.73-3.96,4.63-9.41,7.65-15.37,8.49l-.21.03c-.44.06-.88.08-1.32.07-.68-.03-1.31.43-1.45,1.1-.16.78-.42,1.53-.78,2.26l-.46.94c-2.08,4.26-5.63,7.59-9.98,9.37-4.23,1.74-8.41,3.81-12.46,6.17-.56.33-.64,1.1-.18,1.56.66.64,1.41,1.2,2.24,1.64Z"/>
      <path class="cls-1" d="M52.26,121.65c1.73,3.12,4.45,5.52,7.75,6.81,5.19,2.02,10.05,4.5,14.45,7.37.65.43,1.47.45,2.13.05,4.68-2.83,9.55-5.29,14.47-7.31,3.42-1.4,6.21-4.03,7.85-7.38,0,0,.27-.64.53-1.33.28-.75-.32-1.54-1.12-1.47-3.09.28-6.24.84-9.39,1.67-1.27.34-2.58.5-3.88.5-2.43,0-4.85-.6-6.99-1.74l-.12-.06c-.52-.28-1-.6-1.45-.96-.71-.58-1.76-.58-2.47,0-.45.36-.93.69-1.45.96l-.17.09c-2.2,1.17-4.68,1.79-7.15,1.79-1.2,0-2.4-.14-3.57-.43-2.89-.7-5.89-1.24-8.94-1.61-.82-.1-1.46.72-1.15,1.49.3.74.62,1.45.68,1.57Z"/>
      <path class="cls-1" d="M50.33,114.22h0c4.19.36,8.33,1.03,12.31,2,2.63.64,5.41.29,7.83-1l.17-.09c.49-.26.94-.61,1.31-1.02.28-.31.19-.8-.16-1.01-1.97-1.18-4.09-2.22-6.33-3.09-2.75-1.07-4.98-3.13-6.29-5.81l-.2-.4c-.12-.24-.22-.49-.31-.75-.17-.52-.68-.83-1.23-.82-.36,0-.72-.02-1.07-.07l-.15-.02c-2.86-.41-5.46-1.83-7.32-4.02-1.56-1.84-3.29-3.62-5.14-5.29-.33-.3-.85-.19-1.06.2-.24.45-.41.94-.5,1.44l-.02.14c-.47,2.69.09,5.47,1.6,7.8,2.32,3.61,4.23,7.36,5.67,11.14.15.38.49.64.88.68Z"/>
      <path class="cls-1" d="M31.41,57.08c.02.22.31,1.48.65,2.58.24.76,1.19,1.01,1.77.47.47-.43.96-.88,1.22-1.13,1.42-1.35,2.8-2.81,4.11-4.35,2.82-3.31,6.62-5.56,10.8-6.44.23-.05.99-.14,1.71-.21.77-.07,1.43-.57,1.69-1.3.31-.88.71-1.8.71-1.8,1.64-3.36,4.44-5.99,7.88-7.4,2.89-1.19,5.77-2.59,8.58-4.18.68-.39.73-1.35.09-1.82-.63-.46-1.24-.85-1.29-.88-2.06-1.05-4.37-1.6-6.7-1.6-1.3,0-2.6.17-3.87.5-5.39,1.42-10.78,2.27-16.02,2.53-.78.04-1.45.5-1.75,1.21-2.12,5.04-4.62,9.89-7.41,14.42-1.73,2.8-2.49,6.09-2.18,9.37Z"/>
      <path class="cls-1" d="M30.71,70.45c-.03-.16-.1-.52-.17-.91-.14-.8-1.07-1.17-1.72-.69-.62.46-1.17.92-1.22.98-2.49,2.56-3.97,5.95-4.18,9.59-.32,5.56-1.17,10.95-2.54,16.02-.2.76.03,1.54.61,2.04,4.13,3.57,7.98,7.45,11.42,11.51,2.29,2.69,5.45,4.49,8.95,5.11.1.02.93.08,1.77.09.79,0,1.32-.81,1-1.53-1.19-2.72-2.64-5.41-4.31-8.02-2.06-3.21-2.84-7.01-2.19-10.72l.02-.14c.1-.54.24-1.08.43-1.59.29-.78.05-1.66-.58-2.19-.43-.35-.8-.69-.85-.74-3.12-3.16-5.06-7.34-5.47-11.81-.22-2.31-.54-4.66-.98-6.98Z"/>
    </g>
  </g>
</svg>